<svg width="128" height="128" viewBox="0 0 128 128" fill="none" xmlns="http://www.w3.org/2000/svg">
<path d="M61.9618 27.3041C20.2191 27.3041 1.95669 46.8071 1.95669 46.8071C1.95669 46.8071 22.828 66.3101 63.2662 66.3101C103.704 66.3101 123.271 46.8071 123.271 46.8071C123.271 46.8071 103.704 27.3041 61.9618 27.3041Z" fill="#FAF0D8"/>
<path d="M1.95669 46.8071C8.9225 19.893 33.4202 0 62.614 0C91.8078 0 116.306 19.893 123.271 46.8071C87.0335 20.8292 38.1946 20.8292 1.95669 46.8071Z" fill="#202020"/>
<path d="M1.95669 46.8071C0.704408 51.7999 0 57.0266 0 62.4095C0 96.8907 28.0198 124.819 62.614 124.819C97.2083 124.819 125.228 96.8907 125.228 62.4095C125.228 57.0266 124.524 51.7999 123.271 46.8071C87.0335 72.785 38.1946 72.785 1.95669 46.8071Z" fill="#202020"/>
<path d="M39.1338 54.6083C43.4564 54.6083 46.9605 51.1156 46.9605 46.8071C46.9605 42.4986 43.4564 39.0059 39.1338 39.0059C34.8112 39.0059 31.307 42.4986 31.307 46.8071C31.307 51.1156 34.8112 54.6083 39.1338 54.6083Z" fill="#202020"/>
<path d="M93.921 46.8071C93.921 51.1156 90.4169 54.6083 86.0943 54.6083C81.7717 54.6083 78.2675 51.1156 78.2675 46.8071C78.2675 42.4986 81.7717 39.0059 86.0943 39.0059C90.4169 39.0059 93.921 42.4986 93.921 46.8071Z" fill="#202020"/>
<path d="M103.113 63.6402C103.113 63.6402 95.5716 72.5175 78.2267 72.5175V93.6951C78.2267 104.754 83.1226 115.419 91.9868 122.252C95.1236 124.671 98.8238 126.752 103.113 128C107.403 126.752 111.102 124.671 114.24 122.252C123.104 115.419 128 104.754 128 93.6951V72.5175C110.655 72.5175 103.113 63.6402 103.113 63.6402Z" fill="#35D264"/>
<path d="M95.7483 117.598L95.7483 117.597C88.377 111.915 83.9661 102.714 83.9661 92.9799V77.4043C92.5903 76.2543 98.803 73.3276 102.878 70.6636C106.952 73.3276 113.165 76.2543 121.789 77.4043V92.9799C121.789 102.714 117.378 111.915 110.008 117.597C107.732 119.352 105.341 120.722 102.878 121.691C100.414 120.722 98.0236 119.352 95.7483 117.598Z" stroke="white"/>
<path d="M100.619 99.0752L95.6911 94.2339L93.9446 95.8671L100.619 102.4L114.902 88.4009L113.155 86.7677L100.619 99.0752Z" fill="white"/>
</svg>
