<svg width="80" height="62" viewBox="0 0 80 62" fill="none" xmlns="http://www.w3.org/2000/svg">
<path fill-rule="evenodd" clip-rule="evenodd" d="M30.5991 0C35.5574 0 39.8513 0.933933 43.9936 3.03205C47.39 4.87529 49.23 5.91862 49.5136 6.16206C55.4476 11.2566 59.0762 15.6785 59.0762 20.5606C59.0762 22.8271 53.5054 27.3333 48.2268 27.3333C42.9482 27.3333 38.9641 22.3328 37.0457 20.5606C35.1272 18.7884 32.9629 18.3333 30.5991 18.3333C23.8026 18.3333 18.2929 23.8552 18.2929 30.6667C18.2929 37.4782 23.8026 43 30.5991 43C34.0802 43 34.7565 42.5 36.6461 41.3373C39.3949 39.6458 42.299 34 48.2268 34C52.2975 34 57.4569 36.6482 59.0762 40.0222C60.3291 42.6325 56.6934 47.3645 54.8501 49.6884C51.5737 53.8189 46.7406 56.7724 44.4171 58.1396C42.0936 59.5068 35.5574 61.3333 30.5991 61.3333C13.6997 61.3333 0 47.6034 0 30.6667C0 13.7299 13.6997 0 30.5991 0Z" fill="white"/>
<path fill-rule="evenodd" clip-rule="evenodd" d="M51.2657 0C56.224 0 60.5179 0.933933 64.6602 3.03205C68.0566 4.87529 69.8966 5.91862 70.1802 6.16206C76.1142 11.2566 79.7428 15.6785 79.7428 20.5606C79.7428 22.8271 74.172 27.3333 68.8934 27.3333C63.6148 27.3333 59.6307 22.3328 57.7123 20.5606C55.7938 18.7884 53.6296 18.3333 51.2657 18.3333C44.4692 18.3333 38.9595 23.8552 38.9595 30.6667C38.9595 37.4782 44.4692 43 51.2657 43C54.7468 43 55.4232 42.5 57.3127 41.3373C60.0615 39.6458 62.9656 34 68.8934 34C72.9641 34 78.1235 36.6482 79.7428 40.0222C80.9957 42.6325 77.3601 47.3645 75.5167 49.6884C72.2403 53.8189 67.4073 56.7724 65.0837 58.1396C62.7602 59.5068 56.224 61.3333 51.2657 61.3333C34.3663 61.3333 20.6666 47.6034 20.6666 30.6667C20.6666 13.7299 34.3663 0 51.2657 0Z" fill="url(#paint0_linear)" fill-opacity="0.94"/>
<defs>
<linearGradient id="paint0_linear" x1="50.3333" y1="0" x2="50.3333" y2="61.3333" gradientUnits="userSpaceOnUse">
<stop stop-color="#C4C4C4"/>
<stop offset="0.0001" stop-color="#FBB828"/>
<stop offset="1" stop-color="#FB3C40"/>
</linearGradient>
</defs>
</svg>
